<mxfile host="app.diagrams.net" modified="2021-03-29T13:58:21.963Z" agent="5.0 (Windows NT 10.0; Win64; x64) AppleWebKit/537.36 (KHTML, like Gecko) Chrome/89.0.4389.90 Safari/537.36" etag="lu56qNPRVBrQ0nErmmOr" version="14.5.1" type="github">
  <diagram name="Page-1" id="2c0d36ab-eaac-3732-788b-9136903baeff">
    <mxGraphModel dx="4948.5" dy="1370" grid="1" gridSize="10" guides="1" tooltips="1" connect="1" arrows="1" fold="1" page="1" pageScale="1.5" pageWidth="1169" pageHeight="827" background="#ffffff" math="0" shadow="0">
      <root>
        <mxCell id="0" />
        <mxCell id="1" parent="0" />
        <mxCell id="AwnUMh-idNqtooCouony-77" style="edgeStyle=orthogonalEdgeStyle;rounded=0;orthogonalLoop=1;jettySize=auto;html=1;exitX=0.5;exitY=1;exitDx=0;exitDy=0;entryX=0.5;entryY=0;entryDx=0;entryDy=0;" edge="1" parent="1" source="2" target="13">
          <mxGeometry relative="1" as="geometry" />
        </mxCell>
        <mxCell id="2" value="OPERATİONAL RESEARCH" style="rounded=1;fillColor=#dae8fc;strokeColor=#6c8ebf;fontStyle=1;fontFamily=Tahoma;fontSize=14" parent="1" vertex="1">
          <mxGeometry x="-1050" width="490" height="80" as="geometry" />
        </mxCell>
        <mxCell id="5j10Y5V2l-aJsNf5mWyc-161" style="edgeStyle=orthogonalEdgeStyle;rounded=0;orthogonalLoop=1;jettySize=auto;html=1;exitX=0.5;exitY=1;exitDx=0;exitDy=0;entryX=1;entryY=0.5;entryDx=0;entryDy=0;" parent="1" source="4" target="5j10Y5V2l-aJsNf5mWyc-157" edge="1">
          <mxGeometry relative="1" as="geometry">
            <mxPoint x="-343" y="265" as="sourcePoint" />
          </mxGeometry>
        </mxCell>
        <mxCell id="5j10Y5V2l-aJsNf5mWyc-162" style="edgeStyle=orthogonalEdgeStyle;rounded=0;orthogonalLoop=1;jettySize=auto;html=1;exitX=0.5;exitY=1;exitDx=0;exitDy=0;entryX=1;entryY=0.5;entryDx=0;entryDy=0;" parent="1" source="4" target="5j10Y5V2l-aJsNf5mWyc-128" edge="1">
          <mxGeometry relative="1" as="geometry">
            <mxPoint x="-343" y="265" as="sourcePoint" />
          </mxGeometry>
        </mxCell>
        <mxCell id="5j10Y5V2l-aJsNf5mWyc-165" style="edgeStyle=orthogonalEdgeStyle;rounded=0;orthogonalLoop=1;jettySize=auto;html=1;exitX=0.5;exitY=1;exitDx=0;exitDy=0;entryX=1;entryY=0.5;entryDx=0;entryDy=0;" parent="1" source="4" target="5j10Y5V2l-aJsNf5mWyc-151" edge="1">
          <mxGeometry relative="1" as="geometry">
            <mxPoint x="-343" y="265" as="sourcePoint" />
          </mxGeometry>
        </mxCell>
        <mxCell id="5j10Y5V2l-aJsNf5mWyc-167" style="edgeStyle=orthogonalEdgeStyle;rounded=0;orthogonalLoop=1;jettySize=auto;html=1;exitX=0.5;exitY=1;exitDx=0;exitDy=0;entryX=1;entryY=0.5;entryDx=0;entryDy=0;" parent="1" source="4" target="5j10Y5V2l-aJsNf5mWyc-123" edge="1">
          <mxGeometry relative="1" as="geometry">
            <mxPoint x="-343" y="265" as="sourcePoint" />
          </mxGeometry>
        </mxCell>
        <mxCell id="AwnUMh-idNqtooCouony-71" style="edgeStyle=orthogonalEdgeStyle;rounded=0;orthogonalLoop=1;jettySize=auto;html=1;exitX=0.5;exitY=1;exitDx=0;exitDy=0;entryX=0;entryY=0.5;entryDx=0;entryDy=0;" edge="1" parent="1" source="4" target="5j10Y5V2l-aJsNf5mWyc-138">
          <mxGeometry relative="1" as="geometry" />
        </mxCell>
        <mxCell id="AwnUMh-idNqtooCouony-72" style="edgeStyle=orthogonalEdgeStyle;rounded=0;orthogonalLoop=1;jettySize=auto;html=1;exitX=0.5;exitY=1;exitDx=0;exitDy=0;entryX=0;entryY=0.5;entryDx=0;entryDy=0;" edge="1" parent="1" source="4" target="5j10Y5V2l-aJsNf5mWyc-127">
          <mxGeometry relative="1" as="geometry" />
        </mxCell>
        <mxCell id="AwnUMh-idNqtooCouony-73" style="edgeStyle=orthogonalEdgeStyle;rounded=0;orthogonalLoop=1;jettySize=auto;html=1;exitX=0.5;exitY=1;exitDx=0;exitDy=0;entryX=0;entryY=0.5;entryDx=0;entryDy=0;" edge="1" parent="1" source="4" target="5j10Y5V2l-aJsNf5mWyc-130">
          <mxGeometry relative="1" as="geometry" />
        </mxCell>
        <mxCell id="AwnUMh-idNqtooCouony-74" style="edgeStyle=orthogonalEdgeStyle;rounded=0;orthogonalLoop=1;jettySize=auto;html=1;exitX=0.5;exitY=1;exitDx=0;exitDy=0;entryX=0;entryY=0.5;entryDx=0;entryDy=0;" edge="1" parent="1" source="4" target="5j10Y5V2l-aJsNf5mWyc-125">
          <mxGeometry relative="1" as="geometry" />
        </mxCell>
        <mxCell id="AwnUMh-idNqtooCouony-75" style="edgeStyle=orthogonalEdgeStyle;rounded=0;orthogonalLoop=1;jettySize=auto;html=1;exitX=0.5;exitY=1;exitDx=0;exitDy=0;entryX=0;entryY=0.5;entryDx=0;entryDy=0;" edge="1" parent="1" source="4" target="5j10Y5V2l-aJsNf5mWyc-159">
          <mxGeometry relative="1" as="geometry" />
        </mxCell>
        <mxCell id="4" value="STOKASTİC MODELS" style="rounded=1;fillColor=#d5e8d4;strokeColor=#82b366;fontStyle=1;fontFamily=Tahoma;fontSize=14" parent="1" vertex="1">
          <mxGeometry x="-420" y="120" width="190" height="74.5" as="geometry" />
        </mxCell>
        <mxCell id="9" value="" style="edgeStyle=elbowEdgeStyle;elbow=vertical;strokeWidth=2;rounded=0" parent="1" source="2" target="4" edge="1">
          <mxGeometry x="-1123" y="215.5" width="100" height="100" as="geometry">
            <mxPoint x="-1123" y="315.5" as="sourcePoint" />
            <mxPoint x="-1023" y="215.5" as="targetPoint" />
          </mxGeometry>
        </mxCell>
        <mxCell id="5j10Y5V2l-aJsNf5mWyc-147" style="edgeStyle=orthogonalEdgeStyle;rounded=0;orthogonalLoop=1;jettySize=auto;html=1;exitX=0.5;exitY=1;exitDx=0;exitDy=0;entryX=1;entryY=0.5;entryDx=0;entryDy=0;" parent="1" source="13" target="5j10Y5V2l-aJsNf5mWyc-135" edge="1">
          <mxGeometry relative="1" as="geometry" />
        </mxCell>
        <mxCell id="5j10Y5V2l-aJsNf5mWyc-149" style="edgeStyle=orthogonalEdgeStyle;rounded=0;orthogonalLoop=1;jettySize=auto;html=1;exitX=0.5;exitY=1;exitDx=0;exitDy=0;entryX=1;entryY=0.5;entryDx=0;entryDy=0;" parent="1" source="13" target="5j10Y5V2l-aJsNf5mWyc-124" edge="1">
          <mxGeometry relative="1" as="geometry" />
        </mxCell>
        <mxCell id="5j10Y5V2l-aJsNf5mWyc-150" style="edgeStyle=orthogonalEdgeStyle;rounded=0;orthogonalLoop=1;jettySize=auto;html=1;exitX=0.5;exitY=1;exitDx=0;exitDy=0;entryX=1;entryY=0.5;entryDx=0;entryDy=0;" parent="1" source="13" target="5j10Y5V2l-aJsNf5mWyc-129" edge="1">
          <mxGeometry relative="1" as="geometry" />
        </mxCell>
        <mxCell id="5j10Y5V2l-aJsNf5mWyc-153" style="edgeStyle=orthogonalEdgeStyle;rounded=0;orthogonalLoop=1;jettySize=auto;html=1;exitX=0.5;exitY=1;exitDx=0;exitDy=0;entryX=0;entryY=0.5;entryDx=0;entryDy=0;" parent="1" source="13" target="5j10Y5V2l-aJsNf5mWyc-152" edge="1">
          <mxGeometry relative="1" as="geometry" />
        </mxCell>
        <mxCell id="5j10Y5V2l-aJsNf5mWyc-154" style="edgeStyle=orthogonalEdgeStyle;rounded=0;orthogonalLoop=1;jettySize=auto;html=1;exitX=0.5;exitY=1;exitDx=0;exitDy=0;entryX=0;entryY=0.5;entryDx=0;entryDy=0;" parent="1" source="13" target="5j10Y5V2l-aJsNf5mWyc-126" edge="1">
          <mxGeometry relative="1" as="geometry" />
        </mxCell>
        <mxCell id="5j10Y5V2l-aJsNf5mWyc-156" style="edgeStyle=orthogonalEdgeStyle;rounded=0;orthogonalLoop=1;jettySize=auto;html=1;exitX=0.5;exitY=1;exitDx=0;exitDy=0;entryX=0;entryY=0.5;entryDx=0;entryDy=0;" parent="1" source="13" target="5j10Y5V2l-aJsNf5mWyc-155" edge="1">
          <mxGeometry relative="1" as="geometry" />
        </mxCell>
        <mxCell id="13" value="DETERMİNİSTİC  MODELS" style="rounded=1;fillColor=#ffe6cc;strokeColor=#d79b00;fontStyle=1;fontFamily=Tahoma;fontSize=14" parent="1" vertex="1">
          <mxGeometry x="-1440" y="120" width="280" height="80" as="geometry" />
        </mxCell>
        <mxCell id="16" value="LINEAR PROGRAMMİNG" style="rounded=1;fillColor=#ffe6cc;strokeColor=#d79b00;fontStyle=1;fontFamily=Tahoma;fontSize=14" parent="1" vertex="1">
          <mxGeometry x="-1233" y="221.5" width="370" height="74.5" as="geometry" />
        </mxCell>
        <mxCell id="17" value="INTEGER PROGRAMİNG" style="rounded=1;fillColor=#ffe6cc;strokeColor=#d79b00;fontStyle=1;fontFamily=Tahoma;fontSize=14" parent="1" vertex="1">
          <mxGeometry x="-1230" y="390.5" width="370" height="62" as="geometry" />
        </mxCell>
        <mxCell id="64" value="" style="edgeStyle=elbowEdgeStyle;elbow=horizontal;strokeWidth=2;rounded=0" parent="1" source="13" target="16" edge="1">
          <mxGeometry x="-1523" y="-104" width="100" height="100" as="geometry">
            <mxPoint x="-1523" y="-4" as="sourcePoint" />
            <mxPoint x="-1423" y="-104" as="targetPoint" />
            <Array as="points">
              <mxPoint x="-1298" y="196" />
            </Array>
          </mxGeometry>
        </mxCell>
        <mxCell id="65" value="" style="edgeStyle=elbowEdgeStyle;elbow=horizontal;strokeWidth=2;rounded=0;entryX=0;entryY=0.5;entryDx=0;entryDy=0;" parent="1" source="13" target="17" edge="1">
          <mxGeometry x="-1523" y="-104" width="100" height="100" as="geometry">
            <mxPoint x="-1523" y="-4" as="sourcePoint" />
            <mxPoint x="-1270" y="379.5" as="targetPoint" />
            <Array as="points">
              <mxPoint x="-1298" y="410.5" />
            </Array>
          </mxGeometry>
        </mxCell>
        <mxCell id="66" value="" style="edgeStyle=elbowEdgeStyle;elbow=horizontal;strokeWidth=2;rounded=0;entryX=0;entryY=0.5;entryDx=0;entryDy=0;" parent="1" source="13" target="5j10Y5V2l-aJsNf5mWyc-137" edge="1">
          <mxGeometry x="-1523" y="-104" width="100" height="100" as="geometry">
            <mxPoint x="-1523" y="-4" as="sourcePoint" />
            <mxPoint x="-1263" y="470.5" as="targetPoint" />
            <Array as="points">
              <mxPoint x="-1298" y="286" />
            </Array>
          </mxGeometry>
        </mxCell>
        <mxCell id="68" value="" style="edgeStyle=elbowEdgeStyle;elbow=horizontal;strokeWidth=2;rounded=0;entryX=0;entryY=0.5;entryDx=0;entryDy=0;" parent="1" source="13" target="5j10Y5V2l-aJsNf5mWyc-144" edge="1">
          <mxGeometry x="-1523" y="-104" width="100" height="100" as="geometry">
            <mxPoint x="-1523" y="-4" as="sourcePoint" />
            <mxPoint x="-1263" y="606" as="targetPoint" />
            <Array as="points">
              <mxPoint x="-1298" y="376" />
            </Array>
          </mxGeometry>
        </mxCell>
        <mxCell id="69" value="" style="edgeStyle=elbowEdgeStyle;elbow=horizontal;strokeWidth=2;rounded=0;entryX=0;entryY=0.5;entryDx=0;entryDy=0;" parent="1" source="13" target="5j10Y5V2l-aJsNf5mWyc-134" edge="1">
          <mxGeometry x="-1523" y="-104" width="100" height="100" as="geometry">
            <mxPoint x="-1523" y="-4" as="sourcePoint" />
            <mxPoint x="-1260" y="770.5" as="targetPoint" />
            <Array as="points">
              <mxPoint x="-1298" y="696.5" />
              <mxPoint x="-1298" y="426" />
            </Array>
          </mxGeometry>
        </mxCell>
        <mxCell id="5j10Y5V2l-aJsNf5mWyc-123" value="SİMULATİON" style="rounded=1;fillColor=#23445D;gradientColor=none;strokeColor=none;fontColor=#FFFFFF;fontStyle=1;fontFamily=Tahoma;fontSize=14" parent="1" vertex="1">
          <mxGeometry x="-645" y="1022.75" width="250" height="80" as="geometry" />
        </mxCell>
        <mxCell id="5j10Y5V2l-aJsNf5mWyc-124" value=" Goal Programming." style="rounded=1;fillColor=#ffe6cc;strokeColor=#d79b00;fontStyle=1;fontFamily=Tahoma;fontSize=14" parent="1" vertex="1">
          <mxGeometry x="-1700" y="447" width="331.5" height="64.5" as="geometry" />
        </mxCell>
        <mxCell id="5j10Y5V2l-aJsNf5mWyc-125" value="DECİSİON THEORY" style="rounded=1;fillColor=#23445D;gradientColor=none;strokeColor=none;fontColor=#FFFFFF;fontStyle=1;fontFamily=Tahoma;fontSize=14" parent="1" vertex="1">
          <mxGeometry x="-255" y="939.25" width="250" height="80" as="geometry" />
        </mxCell>
        <mxCell id="5j10Y5V2l-aJsNf5mWyc-126" value="Game Theory" style="rounded=1;fillColor=#ffe6cc;strokeColor=#d79b00;fontStyle=1;fontFamily=Tahoma;fontSize=14" parent="1" vertex="1">
          <mxGeometry x="-1220" y="960.5" width="360" height="70" as="geometry" />
        </mxCell>
        <mxCell id="5j10Y5V2l-aJsNf5mWyc-127" value="WAİTİNG LİNE THEORY" style="rounded=1;fillColor=#23445D;gradientColor=none;strokeColor=none;fontColor=#FFFFFF;fontStyle=1;fontFamily=Tahoma;fontSize=14" parent="1" vertex="1">
          <mxGeometry x="-255" y="561.25" width="250" height="80" as="geometry" />
        </mxCell>
        <mxCell id="5j10Y5V2l-aJsNf5mWyc-128" value="DYNAMİC PROGRAMİNG" style="rounded=1;fillColor=#23445D;gradientColor=none;strokeColor=none;fontColor=#FFFFFF;fontStyle=1;fontFamily=Tahoma;fontSize=14" parent="1" vertex="1">
          <mxGeometry x="-645" y="646.25" width="250" height="80" as="geometry" />
        </mxCell>
        <mxCell id="5j10Y5V2l-aJsNf5mWyc-129" value="Transportation Problems" style="rounded=1;fillColor=#ffe6cc;strokeColor=#d79b00;fontStyle=1;fontFamily=Tahoma;fontSize=14" parent="1" vertex="1">
          <mxGeometry x="-1700" y="870.5" width="331.5" height="64.5" as="geometry" />
        </mxCell>
        <mxCell id="5j10Y5V2l-aJsNf5mWyc-130" value="QUEUNİG THEORY" style="rounded=1;fillColor=#23445D;gradientColor=none;strokeColor=none;fontColor=#FFFFFF;fontStyle=1;fontFamily=Tahoma;fontSize=14" parent="1" vertex="1">
          <mxGeometry x="-255" y="750.25" width="250" height="80" as="geometry" />
        </mxCell>
        <mxCell id="5j10Y5V2l-aJsNf5mWyc-134" value="Assignment problems" style="rounded=1;fillColor=#ffe6cc;strokeColor=#d79b00;fontStyle=1;fontFamily=Tahoma;fontSize=14" parent="1" vertex="1">
          <mxGeometry x="-1700" y="660.5" width="330" height="74.5" as="geometry" />
        </mxCell>
        <mxCell id="5j10Y5V2l-aJsNf5mWyc-135" value="NON-LINEAR PROGRAMMİNG" style="rounded=1;fillColor=#ffe6cc;strokeColor=#d79b00;fontStyle=1;fontFamily=Tahoma;fontSize=14" parent="1" vertex="1">
          <mxGeometry x="-1700" y="296" width="331.5" height="74.5" as="geometry" />
        </mxCell>
        <mxCell id="5j10Y5V2l-aJsNf5mWyc-137" value="Network Analysis" style="rounded=1;fillColor=#ffe6cc;strokeColor=#d79b00;fontStyle=1;fontFamily=Tahoma;fontSize=14" parent="1" vertex="1">
          <mxGeometry x="-1230" y="550.5" width="370" height="74.5" as="geometry" />
        </mxCell>
        <mxCell id="5j10Y5V2l-aJsNf5mWyc-138" value="INVENTORY CONTROL MODELS" style="rounded=1;fillColor=#23445D;gradientColor=none;strokeColor=none;fontColor=#FFFFFF;fontStyle=1;fontFamily=Tahoma;fontSize=14" parent="1" vertex="1">
          <mxGeometry x="-255" y="372.75" width="250" height="80" as="geometry" />
        </mxCell>
        <mxCell id="5j10Y5V2l-aJsNf5mWyc-139" value="MARKOV ANALYSİS" style="rounded=1;fillColor=#23445D;gradientColor=none;strokeColor=none;fontColor=#FFFFFF;fontStyle=1;fontFamily=Tahoma;fontSize=14" parent="1" vertex="1">
          <mxGeometry x="-645" y="270" width="250" height="80" as="geometry" />
        </mxCell>
        <mxCell id="5j10Y5V2l-aJsNf5mWyc-144" value="CPM &amp; PERT" style="rounded=1;fillColor=#ffe6cc;strokeColor=#d79b00;fontStyle=1;fontFamily=Tahoma;fontSize=14" parent="1" vertex="1">
          <mxGeometry x="-1700" y="1050.5" width="320" height="74.5" as="geometry" />
        </mxCell>
        <mxCell id="5j10Y5V2l-aJsNf5mWyc-151" value="PROBABİLİSTİC STOCK&#xa;PROGRMMİNG" style="rounded=1;fillColor=#23445D;gradientColor=none;strokeColor=none;fontColor=#FFFFFF;fontStyle=1;fontFamily=Tahoma;fontSize=14" parent="1" vertex="1">
          <mxGeometry x="-645" y="834.25" width="250" height="80" as="geometry" />
        </mxCell>
        <mxCell id="5j10Y5V2l-aJsNf5mWyc-152" value="DETERMİNİSTİC  STOCK PROGRMAİNG" style="rounded=1;fillColor=#ffe6cc;strokeColor=#d79b00;fontStyle=1;fontFamily=Tahoma;fontSize=14" parent="1" vertex="1">
          <mxGeometry x="-1233" y="755" width="373" height="74.5" as="geometry" />
        </mxCell>
        <mxCell id="5j10Y5V2l-aJsNf5mWyc-155" value="DYNAMIC PROGRAMING" style="rounded=1;fillColor=#ffe6cc;strokeColor=#d79b00;fontStyle=1;fontFamily=Tahoma;fontSize=14" parent="1" vertex="1">
          <mxGeometry x="-1220" y="1170.5" width="360" height="70" as="geometry" />
        </mxCell>
        <mxCell id="5j10Y5V2l-aJsNf5mWyc-157" value="FORECAST MODELING" style="rounded=1;fillColor=#23445D;gradientColor=none;strokeColor=none;fontColor=#FFFFFF;fontStyle=1;fontFamily=Tahoma;fontSize=14" parent="1" vertex="1">
          <mxGeometry x="-645" y="458.25" width="250" height="80" as="geometry" />
        </mxCell>
        <mxCell id="5j10Y5V2l-aJsNf5mWyc-159" value="REPLACEMENT MODELS" style="rounded=1;fillColor=#23445D;gradientColor=none;strokeColor=none;fontColor=#FFFFFF;fontStyle=1;fontFamily=Tahoma;fontSize=14" parent="1" vertex="1">
          <mxGeometry x="-255" y="1128.25" width="250" height="80" as="geometry" />
        </mxCell>
      </root>
    </mxGraphModel>
  </diagram>
</mxfile>
